<svg width="1140" height="300" viewBox="0 0 1140 300" fill="none" xmlns="http://www.w3.org/2000/svg">
<g clip-path="url(#clip0_112_79)">
<rect width="1140" height="300" rx="20" fill="#1A1A40"/>
<path d="M261.03 66.4688C217.72 66.4688 182.486 31.2535 182.486 -12.0339C182.486 -55.3212 217.72 -90.5364 261.03 -90.5364C304.34 -90.5364 339.574 -55.3212 339.574 -12.0339C339.574 31.2535 304.34 66.4688 261.03 66.4688ZM261.03 -83.88C221.392 -83.88 189.146 -51.651 189.146 -12.0339C189.146 27.5833 221.395 59.8123 261.03 59.8123C300.666 59.8123 332.914 27.5809 332.914 -12.0339C332.914 -51.6486 300.668 -83.88 261.03 -83.88Z" fill="white" fill-opacity="0.15"/>
<path d="M260.675 35.1121C234.47 35.1121 213.151 13.8048 213.151 -12.3865C213.151 -38.5779 234.47 -59.8851 260.675 -59.8851C286.88 -59.8851 308.199 -38.5779 308.199 -12.3865C308.199 13.8048 286.88 35.1121 260.675 35.1121ZM260.675 -55.8576C236.692 -55.8576 217.181 -36.3572 217.181 -12.3865C217.181 11.5841 236.693 31.0845 260.675 31.0845C284.657 31.0845 304.169 11.5827 304.169 -12.3865C304.169 -36.3557 284.658 -55.8576 260.675 -55.8576Z" fill="white" fill-opacity="0.15"/>
<path d="M261.03 104.935C196.5 104.935 144 52.4623 144 -12.0338C144 -76.5299 196.5 -129 261.03 -129C325.56 -129 378.058 -76.5299 378.058 -12.0338C378.058 52.4623 325.563 104.935 261.03 104.935ZM261.03 -122.344C200.172 -122.344 150.66 -72.8573 150.66 -12.0338C150.66 48.792 200.172 98.2783 261.03 98.2783C321.886 98.2783 371.398 48.792 371.398 -12.0338C371.4 -72.8597 321.888 -122.344 261.03 -122.344Z" fill="white" fill-opacity="0.15"/>
<path d="M280.235 264.709L280.235 483.234C280.235 485.282 278.574 486.943 276.524 486.943C274.475 486.943 272.813 485.282 272.813 483.234L272.813 264.709C272.813 262.661 274.475 261 276.524 261C278.574 261 280.235 262.661 280.235 264.709Z" fill="white" fill-opacity="0.15"/>
<path d="M254.867 264.709L254.867 483.234C254.867 485.282 253.206 486.943 251.156 486.943C249.107 486.943 247.445 485.282 247.445 483.234L247.445 264.709C247.445 262.661 249.107 261 251.156 261C253.206 261 254.867 262.661 254.867 264.709Z" fill="white" fill-opacity="0.15"/>
<path d="M229.496 264.709L229.496 483.234C229.496 485.282 227.835 486.943 225.785 486.943C223.736 486.943 222.074 485.282 222.074 483.234L222.074 264.709C222.074 262.661 223.736 261 225.785 261C227.835 261 229.496 262.661 229.496 264.709Z" fill="white" fill-opacity="0.15"/>
<path d="M204.128 264.709L204.128 483.234C204.128 485.282 202.466 486.943 200.417 486.943C198.367 486.943 196.706 485.282 196.706 483.234L196.706 264.709C196.706 262.661 198.367 261 200.417 261C202.466 261 204.128 262.661 204.128 264.709Z" fill="white" fill-opacity="0.15"/>
<path d="M178.756 264.709L178.756 483.234C178.756 485.282 177.095 486.943 175.045 486.943C172.996 486.943 171.334 485.282 171.334 483.234L171.334 264.709C171.334 262.661 172.996 261 175.045 261C177.095 261 178.756 262.661 178.756 264.709Z" fill="white" fill-opacity="0.15"/>
<path d="M153.385 264.709L153.386 483.234C153.386 485.282 151.724 486.943 149.674 486.943C147.625 486.943 145.963 485.282 145.963 483.234L145.963 264.709C145.963 262.661 147.625 261 149.674 261C151.724 261 153.385 262.661 153.385 264.709Z" fill="white" fill-opacity="0.15"/>
<path d="M128.014 264.709L128.014 483.234C128.014 485.282 126.353 486.943 124.303 486.943C122.254 486.943 120.592 485.282 120.592 483.234L120.592 264.709C120.592 262.661 122.254 261 124.303 261C126.353 261 128.014 262.661 128.014 264.709Z" fill="white" fill-opacity="0.15"/>
<path d="M102.646 264.709L102.646 483.234C102.646 485.282 100.984 486.943 98.9346 486.943C96.8851 486.943 95.2236 485.282 95.2236 483.234L95.2236 264.709C95.2236 262.661 96.8851 261 98.9346 261C100.984 261 102.646 262.661 102.646 264.709Z" fill="white" fill-opacity="0.15"/>
<path d="M77.2746 264.709L77.2746 483.234C77.2746 485.282 75.6131 486.943 73.5636 486.943C71.514 486.943 69.8525 485.282 69.8525 483.234L69.8525 264.709C69.8525 262.661 71.514 261 73.5635 261C75.6131 261 77.2746 262.661 77.2746 264.709Z" fill="white" fill-opacity="0.15"/>
<path d="M51.9035 264.709L51.9035 483.234C51.9035 485.282 50.242 486.943 48.1925 486.943C46.1429 486.943 44.4814 485.282 44.4814 483.234L44.4814 264.709C44.4814 262.661 46.1429 261 48.1925 261C50.242 261 51.9035 262.661 51.9035 264.709Z" fill="white" fill-opacity="0.15"/>
<path d="M26.5325 264.709L26.5325 483.234C26.5325 485.282 24.8709 486.943 22.8214 486.943C20.7718 486.943 19.1104 485.282 19.1104 483.234L19.1103 264.709C19.1103 262.661 20.7718 261 22.8214 261C24.8709 261 26.5325 262.661 26.5325 264.709Z" fill="white" fill-opacity="0.15"/>
<path d="M1.16421 264.709L1.16422 483.234C1.16422 485.282 -0.497224 486.943 -2.5468 486.943C-4.59637 486.943 -6.25781 485.282 -6.25781 483.234L-6.25782 264.709C-6.25782 262.661 -4.59638 261 -2.54681 261C-0.497234 261 1.16421 262.661 1.16421 264.709Z" fill="white" fill-opacity="0.15"/>
<path d="M710.3 250H594.767L537 150L594.767 50H710.297L768.062 150L710.3 250ZM601.906 237.644H703.163L753.791 150L703.163 62.3586H601.906L551.278 150L601.906 237.644Z" fill="white" fill-opacity="0.15"/>
<path d="M1140 170C1046.26 170 970 93.7382 970 0C970 -93.7382 1046.26 -170 1140 -170C1233.74 -170 1310 -93.7382 1310 0C1310 93.7382 1233.74 170 1140 170ZM1140 -167.813C1047.47 -167.813 972.186 -92.5319 972.186 0C972.186 92.532 1047.47 167.813 1140 167.813C1232.53 167.813 1307.81 92.532 1307.81 0C1307.81 -92.5319 1232.53 -167.813 1140 -167.813Z" fill="white" fill-opacity="0.15"/>
<path d="M1140 149.509C1057.56 149.509 990.49 82.4393 990.49 -3.05176e-05C990.49 -82.4394 1057.56 -149.509 1140 -149.509C1222.44 -149.509 1289.51 -82.4394 1289.51 -3.05176e-05C1289.51 82.4393 1222.44 149.509 1140 149.509ZM1140 -147.323C1058.77 -147.323 992.677 -81.2344 992.677 -3.05176e-05C992.677 81.2331 1058.77 147.321 1140 147.321C1221.23 147.321 1287.32 81.2331 1287.32 -3.05176e-05C1287.32 -81.2344 1221.23 -147.323 1140 -147.323Z" fill="white" fill-opacity="0.15"/>
<path d="M1140 129.017C1068.86 129.017 1010.98 71.1405 1010.98 1.52588e-05C1010.98 -71.1405 1068.86 -129.017 1140 -129.017C1211.14 -129.017 1269.02 -71.1405 1269.02 1.52588e-05C1269.02 71.1405 1211.14 129.017 1140 129.017ZM1140 -126.831C1070.07 -126.831 1013.17 -69.9355 1013.17 1.52588e-05C1013.17 69.9355 1070.07 126.831 1140 126.831C1209.94 126.831 1266.83 69.9343 1266.83 1.52588e-05C1266.83 -69.9343 1209.94 -126.831 1140 -126.831Z" fill="white" fill-opacity="0.15"/>
<path d="M1140 108.528C1080.16 108.528 1031.47 59.8419 1031.47 0.000205994C1031.47 -59.8415 1080.16 -108.527 1140 -108.527C1199.84 -108.527 1248.53 -59.8415 1248.53 0.000205994C1248.53 59.8419 1199.84 108.528 1140 108.528ZM1140 -106.34C1081.36 -106.34 1033.66 -58.6353 1033.66 0.000205994C1033.66 58.6357 1081.36 106.34 1140 106.34C1198.64 106.34 1246.34 58.6357 1246.34 0.000205994C1246.34 -58.6353 1198.64 -106.34 1140 -106.34Z" fill="white" fill-opacity="0.15"/>
<path d="M1140 88.036C1091.46 88.036 1051.96 48.5428 1051.96 -0.0001297C1051.96 -48.543 1091.46 -88.0363 1140 -88.0363C1188.54 -88.0363 1228.04 -48.543 1228.04 -0.0001297C1228.04 48.5428 1188.54 88.036 1140 88.036ZM1140 -85.8488C1092.66 -85.8488 1054.15 -47.3368 1054.15 -0.0001297C1054.15 47.3365 1092.66 85.8486 1140 85.8486C1187.34 85.8486 1225.85 47.3365 1225.85 -0.0001297C1225.85 -47.3368 1187.34 -85.8488 1140 -85.8488Z" fill="white" fill-opacity="0.15"/>
<path d="M1140 67.5448C1102.76 67.5448 1072.46 37.244 1072.46 -0.000114441C1072.46 -37.2442 1102.76 -67.545 1140 -67.545C1177.24 -67.545 1207.55 -37.2442 1207.55 -0.000114441C1207.55 37.244 1177.24 67.5448 1140 67.5448ZM1140 -65.3576C1103.96 -65.3576 1074.64 -36.038 1074.64 -0.000114441C1074.64 36.0378 1103.96 65.3573 1140 65.3573C1176.04 65.3573 1205.36 36.039 1205.36 -0.000114441C1205.36 -36.0392 1176.04 -65.3576 1140 -65.3576Z" fill="white" fill-opacity="0.15"/>
<path d="M1140 47.0547C1114.05 47.0547 1092.94 25.9464 1092.94 -7.62939e-05C1092.94 -25.9466 1114.05 -47.0549 1140 -47.0549C1165.94 -47.0549 1187.05 -25.9454 1187.05 -7.62939e-05C1187.05 25.9452 1165.94 47.0547 1140 47.0547ZM1140 -44.8675C1115.26 -44.8675 1095.13 -24.7403 1095.13 -7.62939e-05C1095.13 24.7402 1115.26 44.8673 1140 44.8673C1164.74 44.8673 1184.87 24.7402 1184.87 -7.62939e-05C1184.87 -24.7403 1164.74 -44.8675 1140 -44.8675Z" fill="white" fill-opacity="0.15"/>
<path d="M1140 26.5637C1125.35 26.5637 1113.44 14.6466 1113.44 0.0001297C1113.44 -14.6464 1125.35 -26.5634 1140 -26.5634C1154.65 -26.5634 1166.56 -14.6464 1166.56 0.0001297C1166.56 14.6466 1154.65 26.5637 1140 26.5637ZM1140 -24.376C1126.56 -24.376 1115.62 -13.4401 1115.62 0.0001297C1115.62 13.4404 1126.56 24.3763 1140 24.3763C1153.44 24.3763 1164.38 13.4416 1164.38 0.0001297C1164.38 -13.4413 1153.44 -24.376 1140 -24.376Z" fill="white" fill-opacity="0.15"/>
</g>
<defs>
<clipPath id="clip0_112_79">
<rect width="1140" height="300" rx="20" fill="white"/>
</clipPath>
</defs>
</svg>
