<svg xmlns="http://www.w3.org/2000/svg" viewBox="0 0 64 64">
  <title>RPL XII-2</title>
  <rect width="64" height="64" rx="12" fill="#1A1A40"/>
  <g fill="#fff" fill-opacity=".45">
    <rect x="7" y="4" width="6" height="5" rx="1.5"/><rect x="19" y="4" width="6" height="5" rx="1.5"/><rect x="31" y="4" width="6" height="5" rx="1.5"/><rect x="43" y="4" width="6" height="5" rx="1.5"/><rect x="55" y="4" width="3" height="5" rx="1.5"/>
    <rect x="7" y="55" width="6" height="5" rx="1.5"/><rect x="19" y="55" width="6" height="5" rx="1.5"/><rect x="31" y="55" width="6" height="5" rx="1.5"/><rect x="43" y="55" width="6" height="5" rx="1.5"/><rect x="55" y="55" width="3" height="5" rx="1.5"/>
  </g>
  <path d="M21.5 27.5C21.5 20.8 26.3 16 32.3 16 38.4 16 43 20.2 43 25.8c0 4.4-2.6 7.3-6.4 10.4L21.5 47.5H43.5" fill="none" stroke="#fff" stroke-width="6.5" stroke-linecap="round" stroke-linejoin="round"/>
</svg>
